<svg width="174" height="55" viewBox="0 0 174 55" fill="none" xmlns="http://www.w3.org/2000/svg">
<path d="M73.6054 19C74.6372 19.8686 75.4036 21.0343 75.9047 22.4971C76.4059 23.96 76.6564 25.4686 76.6564 27.0229C76.6564 28.5619 76.4133 30.0248 75.9269 31.4114C75.4405 32.7981 74.6667 33.9943 73.6054 35H69.051C67.9898 33.9943 67.216 32.7981 66.7296 31.4114C66.2432 30.0248 66 28.5619 66 27.0229C66 25.4686 66.2506 23.96 66.7517 22.4971C67.2528 21.0343 68.0193 19.8686 69.051 19H73.6054ZM70.5323 32.3486H72.1241C72.4926 31.9067 72.8021 31.1905 73.0527 30.2C73.318 29.1943 73.4507 28.1352 73.4507 27.0229C73.4507 25.9105 73.3254 24.8667 73.0748 23.8914C72.8243 22.901 72.5147 22.1848 72.1462 21.7429H70.5323C70.1638 22.1848 69.8469 22.901 69.5816 23.8914C69.3311 24.8667 69.2058 25.9105 69.2058 27.0229C69.2058 28.1352 69.3311 29.1943 69.5816 30.2C69.8469 31.1905 70.1638 31.9067 70.5323 32.3486Z" fill="#181D2B"/>
<path d="M87.8654 32.3486H91.7566V35H86.141C85.1682 34.0552 84.4312 32.859 83.9301 31.4114C83.4289 29.9638 83.1784 28.4781 83.1784 26.9543C83.1784 25.4152 83.4584 23.9371 84.0185 22.52C84.5786 21.1029 85.4114 19.9295 86.5168 19H91.7566V21.7429H87.8654C87.4675 22.2152 87.1211 22.9771 86.8263 24.0286C86.5463 25.08 86.4063 26.0857 86.4063 27.0457C86.4063 28.0057 86.5463 29.0114 86.8263 30.0629C87.1211 31.1143 87.4675 31.8762 87.8654 32.3486Z" fill="#181D2B"/>
<path d="M101.072 21.7429H97.7339V19H107.418V21.7429H104.079V35H101.072V21.7429Z" fill="#181D2B"/>
<path d="M120.326 19C121.358 19.8686 122.124 21.0343 122.625 22.4971C123.126 23.96 123.377 25.4686 123.377 27.0229C123.377 28.5619 123.134 30.0248 122.647 31.4114C122.161 32.7981 121.387 33.9943 120.326 35H115.771C114.71 33.9943 113.936 32.7981 113.45 31.4114C112.964 30.0248 112.72 28.5619 112.72 27.0229C112.72 25.4686 112.971 23.96 113.472 22.4971C113.973 21.0343 114.74 19.8686 115.771 19H120.326ZM117.253 32.3486H118.845C119.213 31.9067 119.523 31.1905 119.773 30.2C120.038 29.1943 120.171 28.1352 120.171 27.0229C120.171 25.9105 120.046 24.8667 119.795 23.8914C119.545 22.901 119.235 22.1848 118.867 21.7429H117.253C116.884 22.1848 116.567 22.901 116.302 23.8914C116.051 24.8667 115.926 25.9105 115.926 27.0229C115.926 28.1352 116.051 29.1943 116.302 30.2C116.567 31.1905 116.884 31.9067 117.253 32.3486Z" fill="#181D2B"/>
<path d="M133.281 21.7429V27.4571H135.249C136.06 26.7714 136.465 25.7657 136.465 24.44C136.465 23.8762 136.355 23.3429 136.133 22.84C135.927 22.3371 135.677 21.9714 135.382 21.7429H133.281ZM130.297 35V19H136.288C137.29 19.4571 138.079 20.1581 138.654 21.1029C139.243 22.0476 139.538 23.1524 139.538 24.4171C139.538 25.6667 139.236 26.8248 138.632 27.8914C138.027 28.9581 137.136 29.7124 135.957 30.1543H133.281V35H130.297Z" fill="#181D2B"/>
<path d="M150.177 32.3486H152.034C152.359 31.9829 152.587 31.6171 152.72 31.2514C152.867 30.8705 152.941 30.3143 152.941 29.5829V19H155.97V28.44C155.97 29.2171 155.948 29.8267 155.903 30.2686C155.874 30.6952 155.785 31.221 155.638 31.8457C155.388 32.9581 154.695 34.0095 153.56 35H148.652C147.517 34.04 146.824 32.9886 146.573 31.8457C146.352 30.9162 146.242 29.781 146.242 28.44V19H149.271V29.5829C149.271 30.3143 149.337 30.8705 149.47 31.2514C149.617 31.6171 149.853 31.9829 150.177 32.3486Z" fill="#181D2B"/>
<path d="M164.384 19H174V21.7429H165.446L165.379 21.88L168.917 28.5543C169.639 29.8952 170 30.9162 170 31.6171C170 33.1562 169.506 34.2838 168.519 35H162.66V32.3486H167.236L167.303 32.2114L163.323 24.8286C162.748 23.7619 162.461 22.8933 162.461 22.2229C162.461 20.6381 163.102 19.5638 164.384 19Z" fill="#181D2B"/>
<path d="M0 20.0606C0 8.98144 8.98145 0 20.0606 0H34.695C45.7742 0 54.7556 8.98145 54.7556 20.0606V34.4501C54.7556 45.5293 45.7742 54.5107 34.695 54.5107H20.0606C8.98145 54.5107 0 45.5293 0 34.4501V20.0606Z" fill="#93E2FF"/>
<path d="M19.0165 5.89108L25.8049 4.11401H30.2475L34.1926 5.07363L39.7015 7.59706L43.1135 10.7958L44.9261 14.2788L45.9923 20.0365L44.9261 25.3321L43.1135 29.064V30.9832V34.0398L44.2863 35.4259L45.9923 34.0398H48.8356L50.435 35.4259L51.7145 38.0915L51.0747 40.295L48.8356 42.4275H46.5254L44.2863 41.4679L42.2605 39.6908L40.5545 40.295L39.7015 42.4275L41.0876 44.4533L40.5545 46.4792L38.2443 47.8653L35.8986 47.0123L34.1926 44.4533H31.6337L29.6433 48.5761L26.9777 49.4291L24.8453 47.8653L23.8857 44.4533H21.3267L19.0165 47.0123L17.3105 47.8653L15.0714 47.0123L14.4317 44.4533L15.8178 41.4679L13.7919 39.6908L10.7354 41.4679L7.21681 42.4275L4.87109 41.4679L3.84039 38.7312V36.3855L6.15057 34.0398H9.24266L9.88241 35.4259L11.3751 34.5729L12.6546 32.9735L12.0149 29.064L9.88241 24.3725L9.24266 18.5438L10.7354 13.4614L13.7919 9.40966L19.0165 5.89108Z" fill="url(#paint0_radial_309_5)"/>
<path d="M43.2201 30.6633C43.2201 33.058 41.2788 34.9993 38.8841 34.9993C36.4893 34.9993 34.548 33.058 34.548 30.6633C34.548 28.2686 36.4893 26.3273 38.8841 26.3273C41.2788 26.3273 43.2201 28.2686 43.2201 30.6633Z" fill="#FF00CD"/>
<path d="M42.6866 23.785C44.507 28.1985 43.1853 32.9301 39.7345 34.3534C36.2838 35.7767 32.0107 33.3526 30.1903 28.9392C28.37 24.5257 29.6917 19.7941 33.1424 18.3708C36.5932 16.9475 40.8663 19.3715 42.6866 23.785Z" fill="#894C41"/>
<path d="M19.1807 13.6896C19.2298 14.4339 18.4858 15.089 17.5188 15.1527C16.5519 15.2165 15.7283 14.6648 15.6792 13.9205C15.6301 13.1762 16.3742 12.5212 17.3411 12.4574C18.308 12.3937 19.1317 12.9454 19.1807 13.6896Z" fill="#D9D9D9" fill-opacity="0.65"/>
<path d="M21.4668 35.0298C21.4272 36.2045 20.1579 37.1151 18.6317 37.0636C17.1056 37.0122 15.9005 36.0181 15.9401 34.8434C15.9797 33.6686 17.249 32.758 18.7752 32.8095C20.3014 32.861 21.5064 33.855 21.4668 35.0298Z" fill="#D9D9D9" fill-opacity="0.64"/>
<path d="M42.0369 35.4215C41.9973 36.5963 40.728 37.5069 39.2018 37.4554C37.6756 37.4039 36.4706 36.4099 36.5102 35.2352C36.5498 34.0604 37.8191 33.1498 39.3453 33.2013C40.8714 33.2528 42.0765 34.2468 42.0369 35.4215Z" fill="#D9D9D9" fill-opacity="0.64"/>
<path d="M30.2952 37.1517C30.6816 38.3371 29.3904 40.7362 27.8504 41.2381C26.3104 41.7401 25.1049 40.1548 24.7185 38.9694C24.3321 37.784 25.3753 37.6536 26.9153 37.1517C28.4553 36.6497 29.9089 35.9663 30.2952 37.1517Z" fill="#D9D9D9" fill-opacity="0.35"/>
<g filter="url(#filter0_i_309_5)">
<path d="M29.5337 37.7355C29.8008 38.5551 28.908 40.2139 27.8433 40.5609C26.7785 40.908 25.945 39.8119 25.6779 38.9923C25.4107 38.1727 26.132 38.0826 27.1968 37.7355C28.2615 37.3885 29.2665 36.916 29.5337 37.7355Z" fill="#0C0F1E"/>
</g>
<g filter="url(#filter1_i_309_5)">
<path d="M28.5825 38.0145C28.7205 38.4378 28.2594 39.2947 27.7093 39.474C27.1593 39.6533 26.7287 39.0871 26.5907 38.6637C26.4527 38.2403 26.8253 38.1937 27.3753 38.0144C27.9254 37.8352 28.4445 37.5911 28.5825 38.0145Z" fill="#93E2FF"/>
</g>
<path d="M14.8248 13.0964C14.8511 13.4948 14.4528 13.8454 13.9352 13.8795C13.4176 13.9137 12.9767 13.6184 12.9505 13.22C12.9242 12.8216 13.3225 12.4709 13.8401 12.4368C14.3576 12.4027 14.7985 12.698 14.8248 13.0964Z" fill="#D9D9D9" fill-opacity="0.65"/>
<path d="M15.9273 16.2336C15.9696 16.8753 15.3281 17.44 14.4945 17.495C13.6609 17.5499 12.9508 17.0743 12.9085 16.4326C12.8661 15.7909 13.5076 15.2262 14.3413 15.1712C15.1749 15.1163 15.885 15.5919 15.9273 16.2336Z" fill="#D9D9D9" fill-opacity="0.65"/>
<path fill-rule="evenodd" clip-rule="evenodd" d="M45.1929 21.417C44.9259 23.6803 44.2092 25.8105 43.1784 27.8988V27.8986C43.1193 27.8272 43.0655 27.7613 43.0149 27.6994L43.0148 27.6992C42.9149 27.5769 42.8276 27.47 42.7369 27.3661C41.2725 25.6876 38.8363 25.1973 36.8596 26.182C34.871 27.1726 33.7606 29.3767 34.1884 31.4843C34.7097 34.0519 37.0044 35.7689 39.5486 35.4953C40.6256 35.3794 41.5768 34.9323 42.3175 34.2582L44.006 35.609C43.735 36.8357 44.162 38.1151 45.1435 38.9371C46.1816 39.8066 47.6606 39.9739 48.8203 39.3549C49.2498 39.1258 49.5867 38.817 49.332 38.2997C49.0841 37.7959 48.677 37.8234 48.2039 38.0578C47.3542 38.479 46.5631 38.3447 45.9447 37.7388C45.3498 37.1559 45.1861 36.2963 45.5267 35.5431C45.8664 34.7917 46.6418 34.3485 47.5264 34.3998C49.2786 34.5016 50.7278 35.8918 50.9272 37.6618C51.1226 39.3973 49.9646 41.0964 48.2536 41.5294C46.5554 41.9589 45.2663 41.3239 44.2073 39.9872C43.1707 38.6788 41.4646 38.493 40.2215 39.476C39.0011 40.441 38.7947 42.1104 39.7722 43.4199C40.3349 44.1737 40.456 44.9471 40.005 45.7706C39.5996 46.5108 38.9378 46.892 38.0985 46.8464C37.1735 46.7962 36.5725 46.2842 36.1902 45.4292C35.9768 44.9516 35.6687 44.4718 35.285 44.1234C34.4024 43.3224 33.3333 43.1317 32.2127 43.5473C31.0375 43.9832 30.4297 44.8844 30.1741 46.1034C30.0497 46.6966 29.8406 47.341 29.4681 47.7978C28.8601 48.5434 27.9745 48.7285 27.045 48.4037C26.0647 48.0612 25.5346 47.3343 25.4313 46.3134C25.2934 44.9484 24.6146 43.9858 23.324 43.5219C21.7342 42.9505 20.125 43.7514 19.3973 45.4225C18.9208 46.5169 17.9665 47.0545 16.9505 46.8007C15.4152 46.4172 14.8686 44.7611 15.8369 43.4273C16.793 42.1104 16.6015 40.4433 15.3833 39.478C14.1412 38.4941 12.4487 38.7055 11.3865 39.9761C11.3354 40.0373 11.285 40.0994 11.2347 40.1615C11.0934 40.3358 10.952 40.5103 10.7916 40.6648C9.6424 41.7722 7.90334 41.9823 6.50899 41.1945C5.1208 40.4102 4.39906 38.7868 4.75647 37.253C5.13108 35.6458 6.46863 34.4949 8.07317 34.4004C8.89095 34.3522 9.5417 34.6581 9.96824 35.3595C10.3664 36.0141 10.352 36.6953 9.96357 37.3538C9.43165 38.2556 8.39154 38.532 7.33947 38.0279C6.8793 37.8073 6.50787 37.8391 6.2704 38.2954C6.04246 38.7335 6.27675 39.0546 6.65379 39.2864C6.77243 39.3592 6.90246 39.4155 7.03175 39.4687C8.8065 40.1999 10.8594 39.2776 11.4904 37.4672C11.6965 36.8757 11.7278 36.2674 11.6131 35.697L13.3464 34.3104C14.023 34.8876 14.872 35.2937 15.8309 35.4622C18.0633 35.8544 20.3765 34.4941 21.1913 32.3096C22.0255 30.0732 21.1369 27.5901 19.0625 26.3598C17.0181 25.1474 14.3826 25.5899 12.8283 27.4063C12.7458 27.5027 12.6629 27.5988 12.5491 27.7308C12.4881 27.8014 12.4182 27.8824 12.3347 27.9793C12.1691 27.5096 12.0002 27.055 11.8345 26.609L11.8345 26.609L11.8345 26.6089L11.8345 26.6089C11.484 25.6654 11.148 24.761 10.8882 23.8354C9.11553 17.5196 11.2398 11.8004 16.6749 8.11501C23.1235 3.74246 32.3433 3.67616 38.7909 8.03395C43.5166 11.2278 45.8769 15.6153 45.1929 21.417ZM45.0304 33.8585C45.5979 33.3456 46.3342 33.0185 47.1062 32.9783C49.9581 32.8298 52.3828 35.1833 52.3647 38.0824H52.364C52.3511 40.1355 51.0571 42.0056 49.1345 42.7497C47.1765 43.5075 44.9711 42.9849 43.558 41.4235C43.4692 41.3253 43.3869 41.2211 43.3047 41.117L43.3046 41.1169C43.2128 41.0007 43.1211 40.8846 43.0203 40.7768C42.4604 40.179 41.668 40.1241 41.0758 40.6308C40.4992 41.1241 40.4013 41.87 40.8874 42.5101C41.6824 43.557 41.9444 44.6983 41.4926 45.937C40.9911 47.3119 39.9661 48.1176 38.5137 48.2554C37.0276 48.3964 35.8871 47.754 35.1142 46.4772C35.0368 46.3492 34.978 46.2098 34.9193 46.0706C34.8961 46.0156 34.8729 45.9606 34.8485 45.9064C34.4827 45.0919 33.7918 44.6688 33.0261 44.7917C32.248 44.9167 31.6998 45.511 31.6008 46.3899C31.4089 48.0922 30.5338 49.2745 28.9004 49.7931C26.6364 50.5122 24.3344 48.9758 24.0192 46.5945C23.8746 45.5018 23.409 44.9236 22.5699 44.7941C21.7433 44.6666 21.1117 45.1059 20.6657 46.1042C20.0678 47.4426 19.0309 48.1977 17.5706 48.2657C16.1372 48.3324 15.0221 47.6964 14.3379 46.4392C13.6388 45.1544 13.7541 43.8762 14.5945 42.6752C15.1826 41.8347 15.1432 41.1003 14.4674 40.5824C13.7812 40.0565 13.0344 40.2236 12.3581 41.0561C10.9544 42.7835 9.14897 43.4752 6.99738 42.9072C4.93714 42.3633 3.6988 40.939 3.30271 38.8428C2.66448 35.4643 5.99482 32.2303 9.19082 33.1008C9.75051 33.2533 10.2373 33.5376 10.6282 33.9102L12.1589 32.7877C11.8315 32.1222 11.6577 31.3705 11.674 30.5717C11.6881 29.8876 11.533 29.3084 11.2327 28.7107C9.89874 26.0548 8.99838 23.2623 8.87077 20.2755C8.65479 15.2178 10.6638 11.1325 14.5267 7.95812C21.7824 1.9952 33.1556 1.84746 40.6003 7.56721C45.9038 11.6419 47.9298 17.6459 46.0912 24.1508C45.7936 25.2036 45.3727 26.2211 44.9516 27.2391L44.9515 27.2392L44.9515 27.2393L44.9515 27.2393L44.9515 27.2394C44.7121 27.8181 44.4726 28.397 44.2557 28.9826C44.0916 29.4251 43.9511 29.9118 43.9575 30.3762C43.9691 31.2152 43.7911 32.0075 43.4607 32.7074L45.0304 33.8585ZM16.6416 27.1022C18.5464 27.1362 20.088 28.7202 20.0729 30.6281V30.6283C20.0577 32.5323 18.4864 34.0915 16.5805 34.0937C14.6479 34.0959 13.0602 32.4974 13.0783 30.5669C13.0964 28.6341 14.7075 27.0677 16.6416 27.1022ZM42.523 30.6279C42.5088 32.5312 40.9367 34.0913 39.0307 34.0935H39.0308C37.098 34.0958 35.5122 32.4988 35.5284 30.5667C35.5445 28.6629 37.1165 27.1041 39.0222 27.102C40.9569 27.0998 42.5374 28.6915 42.523 30.6279ZM17.4099 31.7249C16.8023 31.7215 16.295 31.2154 16.2894 30.6071C16.284 29.9991 16.7819 29.4851 17.3908 29.47C18.0292 29.4541 18.5604 29.9847 18.5449 30.6229C18.53 31.2354 18.0223 31.7283 17.4099 31.7249ZM38.2377 31.724C38.849 31.6933 39.3312 31.1715 39.312 30.5615V30.5613C39.2928 29.9517 38.7762 29.4595 38.1661 29.4698C37.5571 29.4801 37.0554 29.99 37.056 30.5981C37.0565 31.2337 37.6047 31.7559 38.2377 31.724Z" fill="#0C0F1E"/>
<path d="M42.6804 23.0154C44.5007 27.4288 43.179 32.1604 39.7283 33.5837C36.2775 35.007 32.0045 32.583 30.1841 28.1695C28.3638 23.756 29.6855 19.0244 33.1362 17.6011C36.587 16.1779 40.86 18.6019 42.6804 23.0154Z" fill="#CC03A9"/>
<path fill-rule="evenodd" clip-rule="evenodd" d="M39.5402 33.1277C42.641 31.8488 43.9866 27.4759 42.2244 23.2034C40.4622 18.931 36.4251 16.7782 33.3243 18.0572C30.2235 19.3361 28.8779 23.709 30.6401 27.9814C32.4023 32.2539 36.4394 34.4066 39.5402 33.1277ZM39.7283 33.5837C43.179 32.1604 44.5007 27.4288 42.6804 23.0154C40.86 18.6019 36.587 16.1779 33.1362 17.6011C29.6855 19.0244 28.3638 23.756 30.1841 28.1695C32.0045 32.583 36.2775 35.007 39.7283 33.5837Z" fill="black"/>
<path d="M42.9353 24.9184C44.6388 29.0487 43.2224 33.5508 39.7717 34.9741C36.3209 36.3973 32.1425 34.2029 30.439 30.0726C28.7354 25.9423 30.1518 21.4403 33.6026 20.017C37.0533 18.5937 41.2317 20.7882 42.9353 24.9184Z" fill="#9CE4FF"/>
<path fill-rule="evenodd" clip-rule="evenodd" d="M39.709 34.822C43.0514 33.4435 44.4632 29.0542 42.7833 24.9811C41.1033 20.9081 37.0076 18.7904 33.6653 20.169C30.3229 21.5476 28.911 25.9368 30.591 30.0099C32.271 34.083 36.3666 36.2006 39.709 34.822ZM39.7717 34.9741C43.2224 33.5508 44.6388 29.0487 42.9353 24.9184C41.2317 20.7882 37.0533 18.5937 33.6026 20.017C30.1518 21.4403 28.7354 25.9423 30.439 30.0726C32.1425 34.2029 36.3209 36.3973 39.7717 34.9741Z" fill="black"/>
<path d="M12.9778 24.5223C11.2743 28.6526 12.6906 33.1547 16.1414 34.5779C19.5921 36.0012 23.7705 33.8068 25.4741 29.6765C27.1777 25.5462 25.7613 21.0441 22.3105 19.6209C18.8598 18.1976 14.6814 20.392 12.9778 24.5223Z" fill="#9CE4FF"/>
<path fill-rule="evenodd" clip-rule="evenodd" d="M16.2041 34.4259C12.8617 33.0474 11.4499 28.6581 13.1298 24.585C14.8098 20.512 18.9055 18.3943 22.2478 19.7729C25.5902 21.1514 27.002 25.5407 25.3221 29.6138C23.6421 33.6868 19.5464 35.8045 16.2041 34.4259ZM16.1414 34.5779C12.6906 33.1547 11.2743 28.6526 12.9778 24.5223C14.6814 20.392 18.8598 18.1976 22.3105 19.6209C25.7613 21.0441 27.1777 25.5462 25.4741 29.6765C23.7705 33.8068 19.5921 36.0012 16.1414 34.5779Z" fill="#0C0F1E"/>
<path d="M12.9934 23.0154C11.173 27.4288 12.4947 32.1604 15.9455 33.5837C19.3962 35.007 23.6693 32.583 25.4897 28.1695C27.31 23.756 25.9883 19.0244 22.5376 17.6011C19.0868 16.1779 14.8137 18.6019 12.9934 23.0154Z" fill="#CC03A9"/>
<path fill-rule="evenodd" clip-rule="evenodd" d="M16.1336 33.1277C13.0328 31.8488 11.6872 27.4759 13.4494 23.2034C15.2116 18.931 19.2487 16.7782 22.3495 18.0572C25.4503 19.3361 26.7958 23.709 25.0336 27.9814C23.2714 32.2539 19.2344 34.4066 16.1336 33.1277ZM15.9455 33.5837C12.4947 32.1604 11.173 27.4288 12.9934 23.0154C14.8137 18.6019 19.0868 16.1779 22.5376 17.6011C25.9883 19.0244 27.31 23.756 25.4897 28.1695C23.6693 32.583 19.3962 35.007 15.9455 33.5837Z" fill="black"/>
<g filter="url(#filter2_i_309_5)">
<path d="M42.159 23.4239C44.507 27.1557 43.8493 31.7923 40.6899 33.7802C37.5305 35.7681 33.0659 34.3544 30.7179 30.6227C28.3699 26.8909 29.0276 22.2542 32.187 20.2664C35.3464 18.2785 39.811 19.6922 42.159 23.4239Z" fill="url(#paint1_radial_309_5)"/>
</g>
<path fill-rule="evenodd" clip-rule="evenodd" d="M40.4272 33.3627C43.2935 31.5592 43.9871 27.2556 41.7415 23.6866C39.4959 20.1176 35.3161 18.8804 32.4497 20.6839C29.5834 22.4874 28.8898 26.7909 31.1354 30.3599C33.381 33.929 37.5608 35.1662 40.4272 33.3627ZM40.6899 33.7802C43.8493 31.7923 44.507 27.1557 42.159 23.4239C39.811 19.6922 35.3464 18.2785 32.187 20.2664C29.0276 22.2542 28.3699 26.8909 30.7179 30.6227C33.0659 34.3544 37.5305 35.7681 40.6899 33.7802Z" fill="#0C0F1E"/>
<g filter="url(#filter3_i_309_5)">
<path d="M13.2141 23.213C10.8661 26.9448 11.5239 31.5815 14.6833 33.5693C17.8427 35.5572 22.3073 34.1435 24.6553 30.4118C27.0033 26.68 26.3455 22.0434 23.1861 20.0555C20.0268 18.0676 15.5621 19.4813 13.2141 23.213Z" fill="url(#paint2_radial_309_5)"/>
</g>
<path fill-rule="evenodd" clip-rule="evenodd" d="M14.946 33.1668C12.0797 31.3633 11.386 27.0597 13.6317 23.4907C15.8773 19.9217 20.0571 18.6845 22.9234 20.488C25.7898 22.2914 26.4834 26.595 24.2378 30.164C21.9922 33.733 17.8123 34.9703 14.946 33.1668ZM14.6833 33.5843C11.5239 31.5964 10.8661 26.9597 13.2141 23.228C15.5621 19.4962 20.0268 18.0826 23.1861 20.0704C26.3455 22.0583 27.0033 26.695 24.6553 30.4267C22.3073 34.1585 17.8427 35.5722 14.6833 33.5843Z" fill="black"/>
<path fill-rule="evenodd" clip-rule="evenodd" d="M35.1169 26.7958C36.1088 26.4945 36.6609 25.3009 36.3469 24.1368L36.3468 24.1365C36.0329 22.9731 34.9549 22.2327 33.9557 22.4944C32.958 22.7557 32.3684 23.9341 32.6509 25.102C32.946 26.3226 34.0899 27.1082 35.1169 26.7958ZM49.0765 42.8906C51.0065 42.1436 52.3055 40.2662 52.3185 38.2052H52.3192C52.3374 35.2949 49.9033 32.9322 47.0404 33.0813C46.2653 33.1216 45.5261 33.45 44.9565 33.9649L43.3623 32.7958L42.2249 34.3596L43.9281 35.7222C43.656 36.9537 44.0848 38.238 45.0701 39.0632C46.1121 39.936 47.5969 40.104 48.761 39.4826C49.1922 39.2526 49.5304 38.9426 49.2748 38.4233C49.0259 37.9176 48.6172 37.9452 48.1423 38.1805C47.2893 38.6033 46.4951 38.4685 45.8743 37.8602C45.2771 37.275 45.1128 36.4122 45.4547 35.656C45.7957 34.9017 46.5741 34.4568 47.4622 34.5083C49.2211 34.6105 50.676 36.0061 50.8761 37.783C51.0723 39.5252 49.9098 41.2309 48.1922 41.6655C46.4874 42.0967 45.1933 41.4592 44.1302 40.1173C43.0896 38.8039 41.3768 38.6173 40.129 39.6041C38.9039 40.5729 38.6966 42.2488 39.6779 43.5633C40.2429 44.3201 40.3644 45.0965 39.9116 45.9232C39.5046 46.6662 38.8403 47.0489 37.9978 47.0031C37.0692 46.9527 36.4658 46.4388 36.082 45.5804C35.8678 45.101 35.5586 44.6193 35.1733 44.2696C34.2873 43.4655 33.2141 43.274 32.0891 43.6912C30.9093 44.1288 30.2992 45.0335 30.0426 46.2573C29.9177 46.8528 29.7078 47.4996 29.3338 47.9583C28.7235 48.7067 27.8345 48.8926 26.9014 48.5665C25.9173 48.2226 25.3852 47.4929 25.2814 46.468C25.143 45.0978 24.4616 44.1314 23.166 43.6657C21.57 43.0921 19.9546 43.8961 19.224 45.5737C18.7458 46.6724 17.7877 47.212 16.7678 46.9572C15.2266 46.5723 14.6778 44.9097 15.6499 43.5708C16.6096 42.2488 16.4174 40.5752 15.1945 39.6062C13.9476 38.6185 12.2485 38.8307 11.1822 40.1063C11.1309 40.1676 11.0804 40.2299 11.0299 40.2922L11.0298 40.2923C10.888 40.4673 10.746 40.6425 10.585 40.7976C9.43137 41.9092 7.68557 42.1202 6.28582 41.3293C4.89225 40.542 4.16771 38.9123 4.52651 37.3725C4.90257 35.7591 6.24531 34.6038 7.85606 34.5089C8.67701 34.4605 9.33028 34.7676 9.75848 35.4717C10.1582 36.1289 10.1437 36.8127 9.75379 37.4738C9.21981 38.379 8.17567 38.6565 7.11952 38.1505C6.65756 37.929 6.28469 37.9609 6.04631 38.419C5.81748 38.8588 6.05268 39.1811 6.43118 39.4138C6.55028 39.4869 6.68082 39.5434 6.81061 39.5968C8.59223 40.3309 10.6531 39.405 11.2865 37.5876C11.4935 36.9938 11.5249 36.3832 11.4097 35.8105L13.2233 34.3596L12.086 32.7958L10.421 34.0168C10.0285 33.6427 9.53989 33.3574 8.97804 33.2043C5.76966 32.3304 2.42641 35.5769 3.06711 38.9685C3.46474 41.0728 4.70788 42.5027 6.7761 43.0486C8.93603 43.6188 10.7484 42.9245 12.1575 41.1904C12.8365 40.3547 13.5862 40.1869 14.2751 40.7149C14.9535 41.2348 14.9931 41.972 14.4026 42.8158C13.559 44.0214 13.4433 45.3046 14.1451 46.5944C14.832 47.8564 15.9513 48.4949 17.3903 48.4279C18.8562 48.3597 19.8972 47.6016 20.4974 46.258C20.9451 45.2559 21.5792 44.8149 22.409 44.9429C23.2513 45.0729 23.7187 45.6534 23.8639 46.7502C24.1803 49.1408 26.4912 50.6832 28.764 49.9613C30.4037 49.4406 31.2822 48.2538 31.4748 46.5449C31.5742 45.6625 32.1245 45.0659 32.9057 44.9405C33.6743 44.8171 34.3679 45.2418 34.7352 46.0595C34.7596 46.1139 34.7829 46.1691 34.8062 46.2243C34.8651 46.3641 34.9242 46.504 35.0019 46.6325C35.7778 47.9142 36.9227 48.5592 38.4145 48.4176C39.8726 48.2793 40.9016 47.4704 41.405 46.0902C41.8585 44.8467 41.5955 43.7009 40.7975 42.65C40.3094 42.0075 40.4077 41.2586 40.9865 40.7634C41.5811 40.2547 42.3765 40.3099 42.9386 40.9101C43.0398 41.0182 43.1319 41.1348 43.224 41.2514L43.224 41.2514L43.224 41.2514L43.2241 41.2515L43.2241 41.2515C43.3066 41.356 43.3893 41.4606 43.4784 41.5592C44.8969 43.1266 47.1109 43.6513 49.0765 42.8906Z" fill="#0C0F1E"/>
<path d="M18.1072 11.4587L22.4125 15.2173C22.9479 15.6848 23.7694 15.5901 24.1846 15.0132C24.5603 14.491 24.46 13.7659 23.9567 13.3653L19.4852 9.80598C19.057 9.46508 18.441 9.49995 18.054 9.887C17.6134 10.3275 17.6379 11.049 18.1072 11.4587Z" fill="#12131C"/>
<path d="M36.8455 14.7943L32.3579 16.7456C31.8255 16.9771 31.2076 16.7175 31.0002 16.1752C30.7992 15.6497 31.0623 15.0608 31.5879 14.8598L36.1585 13.1121C36.5742 12.9532 37.0438 13.1186 37.268 13.503C37.5423 13.9731 37.3446 14.5772 36.8455 14.7943Z" fill="#12131C"/>
<path d="M34.2192 22.9312C34.3967 23.5892 34.0847 24.2639 33.5239 24.4343C32.9434 24.6109 32.2968 24.1667 32.1299 23.4767C31.9703 22.8166 32.3036 22.1504 32.8675 22.0027C33.4323 21.8548 34.0417 22.2734 34.2192 22.931L34.2192 22.9312Z" fill="#FCFBFB" fill-opacity="0.95"/>
<path d="M19.0038 24.1368C18.6897 25.3009 19.2418 26.4945 20.2337 26.7958C21.2607 27.1082 22.4046 26.3226 22.6997 25.1019C22.9822 23.9341 22.3926 22.7557 21.3949 22.4944C20.3957 22.2327 19.3177 22.9731 19.0039 24.1365L19.0038 24.1368Z" fill="#1A1511"/>
<path d="M21.1314 22.9312C20.9539 23.5892 21.2659 24.2639 21.8266 24.4343C22.4072 24.6109 23.0538 24.1667 23.2206 23.4767C23.3803 22.8166 23.047 22.1504 22.4831 22.0027C21.9182 21.8548 21.3089 22.2734 21.1314 22.931L21.1314 22.9312Z" fill="#FCFBFB" fill-opacity="0.95"/>
<path d="M32.1501 7.58685C32.6036 7.74439 36.3642 9.13413 38.1878 9.80931C40.0019 10.7939 38.4429 8.20576 35.75 7.58685C33.5957 7.09172 32.4524 7.04295 32.1501 7.08046C31.9611 7.18362 31.6965 7.42931 32.1501 7.58685Z" fill="#D9D9D9" fill-opacity="0.65"/>
<path d="M33.9835 9.1088C34.1839 9.17881 35.8456 9.79648 36.6513 10.0966C37.4529 10.5342 36.764 9.38387 35.5742 9.1088C34.6223 8.88874 34.1171 8.86707 33.9835 8.88374C33.9 8.92958 33.7831 9.03878 33.9835 9.1088Z" fill="#D9D9D9" fill-opacity="0.65"/>
<defs>
<filter id="filter0_i_309_5" x="25.622" y="37.2814" width="3.95941" height="3.34552" filterUnits="userSpaceOnUse" color-interpolation-filters="sRGB">
<feFlood flood-opacity="0" result="BackgroundImageFix"/>
<feBlend mode="normal" in="SourceGraphic" in2="BackgroundImageFix" result="shape"/>
<feColorMatrix in="SourceAlpha" type="matrix" values="0 0 0 0 0 0 0 0 0 0 0 0 0 0 0 0 0 0 127 0" result="hardAlpha"/>
<feOffset/>
<feGaussianBlur stdDeviation="2"/>
<feComposite in2="hardAlpha" operator="arithmetic" k2="-1" k3="1"/>
<feColorMatrix type="matrix" values="0 0 0 0 1 0 0 0 0 1 0 0 0 0 1 0 0 0 0.37 0"/>
<feBlend mode="normal" in2="shape" result="effect1_innerShadow_309_5"/>
</filter>
<filter id="filter1_i_309_5" x="26.5618" y="37.7798" width="2.04541" height="1.72821" filterUnits="userSpaceOnUse" color-interpolation-filters="sRGB">
<feFlood flood-opacity="0" result="BackgroundImageFix"/>
<feBlend mode="normal" in="SourceGraphic" in2="BackgroundImageFix" result="shape"/>
<feColorMatrix in="SourceAlpha" type="matrix" values="0 0 0 0 0 0 0 0 0 0 0 0 0 0 0 0 0 0 127 0" result="hardAlpha"/>
<feOffset/>
<feGaussianBlur stdDeviation="2"/>
<feComposite in2="hardAlpha" operator="arithmetic" k2="-1" k3="1"/>
<feColorMatrix type="matrix" values="0 0 0 0 1 0 0 0 0 1 0 0 0 0 1 0 0 0 0.37 0"/>
<feBlend mode="normal" in2="shape" result="effect1_innerShadow_309_5"/>
</filter>
<filter id="filter2_i_309_5" x="29.3106" y="19.366" width="14.2557" height="18.3146" filterUnits="userSpaceOnUse" color-interpolation-filters="sRGB">
<feFlood flood-opacity="0" result="BackgroundImageFix"/>
<feBlend mode="normal" in="SourceGraphic" in2="BackgroundImageFix" result="shape"/>
<feColorMatrix in="SourceAlpha" type="matrix" values="0 0 0 0 0 0 0 0 0 0 0 0 0 0 0 0 0 0 127 0" result="hardAlpha"/>
<feOffset dy="3"/>
<feGaussianBlur stdDeviation="2"/>
<feComposite in2="hardAlpha" operator="arithmetic" k2="-1" k3="1"/>
<feColorMatrix type="matrix" values="0 0 0 0 0 0 0 0 0 0 0 0 0 0 0 0 0 0 0.2 0"/>
<feBlend mode="normal" in2="shape" result="effect1_innerShadow_309_5"/>
</filter>
<filter id="filter3_i_309_5" x="11.8069" y="19.1551" width="14.2557" height="18.3146" filterUnits="userSpaceOnUse" color-interpolation-filters="sRGB">
<feFlood flood-opacity="0" result="BackgroundImageFix"/>
<feBlend mode="normal" in="SourceGraphic" in2="BackgroundImageFix" result="shape"/>
<feColorMatrix in="SourceAlpha" type="matrix" values="0 0 0 0 0 0 0 0 0 0 0 0 0 0 0 0 0 0 127 0" result="hardAlpha"/>
<feOffset dy="3"/>
<feGaussianBlur stdDeviation="3.5"/>
<feComposite in2="hardAlpha" operator="arithmetic" k2="-1" k3="1"/>
<feColorMatrix type="matrix" values="0 0 0 0 0 0 0 0 0 0 0 0 0 0 0 0 0 0 0.2 0"/>
<feBlend mode="normal" in2="shape" result="effect1_innerShadow_309_5"/>
</filter>
<radialGradient id="paint0_radial_309_5" cx="0" cy="0" r="1" gradientUnits="userSpaceOnUse" gradientTransform="translate(27.7774 26.7716) rotate(90) scale(22.6576 23.937)">
<stop stop-color="#C75FED"/>
<stop offset="0.505208" stop-color="#FF4BED"/>
<stop offset="1" stop-color="#A35BFF"/>
</radialGradient>
<radialGradient id="paint1_radial_309_5" cx="0" cy="0" r="1" gradientUnits="userSpaceOnUse" gradientTransform="translate(41.3116 32.0551) rotate(45) scale(9.28126 7.85775)">
<stop offset="0.114583" stop-color="#DA7CB4"/>
<stop offset="1" stop-color="#A8FCF2"/>
</radialGradient>
<radialGradient id="paint2_radial_309_5" cx="0" cy="0" r="1" gradientUnits="userSpaceOnUse" gradientTransform="translate(13.9583 34.5774) rotate(126.762) scale(15.5892 13.1982)">
<stop offset="0.114583" stop-color="#DA7CB4"/>
<stop offset="1" stop-color="#A8FCF2"/>
</radialGradient>
</defs>
</svg>
