<svg width="22" height="22" viewBox="0 0 22 22" fill="none" xmlns="http://www.w3.org/2000/svg">
<g clip-path="url(#clip0_103_188)">
<path d="M11 22C17.0751 22 22 17.0751 22 11C22 4.92487 17.0751 0 11 0C4.92487 0 0 4.92487 0 11C0 17.0751 4.92487 22 11 22Z" fill="#8247E5"/>
<path d="M14.6409 8.64647C14.3771 8.49298 14.0341 8.49298 13.7439 8.64647L11.6859 9.82321L10.2876 10.5907L8.22969 11.7674C7.96584 11.9209 7.62287 11.9209 7.33264 11.7674L5.69684 10.8465C5.43301 10.693 5.24833 10.4116 5.24833 10.1046V8.28832C5.24833 7.98135 5.40663 7.69995 5.69684 7.54647L7.30625 6.65111C7.57008 6.49762 7.91308 6.49762 8.20331 6.65111L9.81271 7.54647C10.0766 7.69995 10.2612 7.98135 10.2612 8.28832V9.46507L11.6596 8.67203V7.49529C11.6596 7.18832 11.5013 6.90692 11.2111 6.75344L8.22969 5.06506C7.96584 4.91158 7.62287 4.91158 7.33264 5.06506L4.2985 6.75344C4.00827 6.90692 3.84998 7.18832 3.84998 7.49529V10.8976C3.84998 11.2046 4.00827 11.486 4.2985 11.6395L7.33264 13.3278C7.59649 13.4814 7.93946 13.4814 8.22969 13.3278L10.2876 12.1767L11.6859 11.3837L13.7439 10.2325C14.0077 10.079 14.3507 10.079 14.6409 10.2325L16.2503 11.1278C16.5142 11.2814 16.6989 11.5627 16.6989 11.8697V13.686C16.6989 13.993 16.5406 14.2744 16.2503 14.4278L14.6409 15.3488C14.3771 15.5023 14.0341 15.5023 13.7439 15.3488L12.1345 14.4534C11.8707 14.3 11.6859 14.0185 11.6859 13.7116V12.5348L10.2876 13.3278V14.5046C10.2876 14.8116 10.4459 15.093 10.7361 15.2465L13.7703 16.9348C14.0341 17.0883 14.3771 17.0883 14.6673 16.9348L17.7014 15.2465C17.9653 15.093 18.15 14.8116 18.15 14.5046V11.1023C18.15 10.7953 17.9917 10.5139 17.7014 10.3604L14.6409 8.64647Z" fill="#27242E"/>
<g clip-path="url(#clip1_103_188)">
<path d="M10.9999 21.9999C17.075 21.9999 21.9999 17.075 21.9999 10.9999C21.9999 4.92484 17.075 0 10.9999 0C4.92484 0 0 4.92484 0 10.9999C0 17.075 4.92484 21.9999 10.9999 21.9999Z" fill="#111930"/>
<path d="M16.3543 10.5476L16.2774 10.6019C16.2218 10.6407 16.1455 10.6271 16.1064 10.5715L15.5205 9.73496H13.4751L13.4757 9.81669V9.81731L13.4805 10.2375C13.4946 10.2337 13.5098 10.2315 13.5256 10.2315H15.0007C15.0585 10.2315 15.1089 10.2598 15.1394 10.3037C15.1486 10.3097 15.1567 10.3172 15.1638 10.3264L15.8549 11.1765C15.8975 11.2291 15.8896 11.3065 15.837 11.3491L15.7642 11.4084C15.7115 11.4512 15.6342 11.4433 15.5916 11.3907L14.9253 10.5708H13.5256C13.5114 10.5708 13.4971 10.5692 13.4836 10.5654L13.4886 11.0509C13.4974 11.0492 13.5065 11.0486 13.5157 11.0486H14.133C14.2087 11.0486 14.2728 11.0981 14.2946 11.1666L14.9772 12.006C15.0199 12.0587 15.012 12.136 14.9593 12.1789L14.8865 12.2379C14.8338 12.2808 14.7565 12.2729 14.7136 12.2202L14.0373 11.3881H13.5158C13.5077 11.3881 13.4998 11.3874 13.4921 11.3864L13.494 11.5669V11.5707C13.4963 11.5931 13.4963 11.6152 13.4936 11.6366C13.4861 11.7211 13.4476 11.7976 13.3797 11.8609C13.3298 11.9072 13.2746 11.9401 13.2141 11.9584C13.1889 11.9663 13.1629 11.9717 13.1361 11.9744C13.1195 11.9767 13.1024 11.9776 13.085 11.9776H11.8499C11.7023 11.9776 11.5708 11.9782 11.4553 11.9786C11.3336 11.9789 11.2292 11.9798 11.1423 11.9811C11.1117 11.9815 11.0824 11.9817 11.0552 11.9827C10.9344 11.985 10.8435 11.9887 10.7846 11.9937C10.7571 11.9962 10.7307 11.9991 10.7057 12.0025C10.6783 12.0066 10.6531 12.0107 10.63 12.016C10.6238 12.0186 10.6174 12.0204 10.6107 12.0221C10.5098 12.0404 10.4119 12.0659 10.3199 12.0988C10.2881 12.1102 10.255 12.1227 10.2218 12.137C10.1034 12.1869 9.9959 12.2562 9.90164 12.3423C9.86128 12.3792 9.82304 12.4203 9.78745 12.465C9.77265 12.483 9.75836 12.5016 9.74483 12.5212C9.71299 12.5657 9.68328 12.614 9.65558 12.6647C9.59779 12.7723 9.55342 12.9014 9.52409 13.0502C9.51907 13.0757 9.51431 13.1013 9.50992 13.1281V13.5042C9.53173 13.6244 9.56132 13.7338 9.59829 13.8316C9.61158 13.8663 9.62575 13.8998 9.64116 13.9316V13.932C9.67212 13.9983 9.70772 14.0582 9.74721 14.1119C9.85977 14.2652 9.9964 14.3835 10.1528 14.464C10.2059 14.491 10.2623 14.516 10.3213 14.5378C10.4342 14.5798 10.5566 14.61 10.6853 14.6281L10.691 14.6287C10.6945 14.6291 10.6978 14.6297 10.7014 14.6299C10.7026 14.6303 10.7039 14.6303 10.7051 14.6306C10.7865 14.6416 10.8701 14.6501 10.9549 14.6561V14.5353H10.7862C10.5726 14.5353 10.3948 14.381 10.3582 14.1779C10.3538 14.1546 10.3513 14.1299 10.3509 14.1054V13.4508C10.3509 13.2107 10.5462 13.0154 10.7862 13.0154H12.0292C12.1342 13.0154 12.2307 13.0529 12.3062 13.1149C12.3241 13.13 12.3412 13.1467 12.3567 13.1644C12.4239 13.2411 12.4646 13.3414 12.4646 13.4508V13.7351C12.4656 13.7386 12.4663 13.742 12.4665 13.7452C12.4719 13.7702 12.4747 13.7957 12.475 13.8216C12.4754 13.8244 12.4754 13.8272 12.4754 13.8301V15.0733C12.4754 15.0853 12.4748 15.0976 12.4738 15.1093C12.4715 15.1348 12.4675 15.1598 12.4611 15.184V15.9559C12.4611 16.0688 12.4145 16.1638 12.3226 16.2388C12.239 16.3072 12.1381 16.3473 12.0229 16.3584C11.9075 16.3757 11.796 16.3877 11.6926 16.3943C11.6415 16.3975 11.5901 16.3997 11.5393 16.4016V17.7155C11.5393 17.7621 11.5018 17.7997 11.4551 17.7997H11.0532C11.0068 17.7997 10.969 17.7623 10.969 17.7155V16.3887C10.904 16.3833 10.8402 16.377 10.7781 16.3698V17.7155C10.7781 17.7621 10.7402 17.7997 10.6938 17.7997H10.292C10.2453 17.7997 10.2077 17.7623 10.2077 17.7155V16.2635C10.1853 16.2575 10.1626 16.2512 10.1408 16.2452C9.7625 16.1389 9.42281 15.9843 9.13137 15.7849C9.06293 15.7373 8.99662 15.6871 8.93395 15.6351L8.93357 15.6347C8.90449 15.6108 8.87641 15.5867 8.84871 15.5619C8.83016 15.5455 8.81211 15.5284 8.79419 15.5118C8.77689 15.4957 8.76047 15.4795 8.74367 15.4629C8.74367 15.4629 8.74354 15.4627 8.74329 15.4625C8.69002 15.4099 8.63951 15.3552 8.5915 15.299C8.43719 15.1179 8.30696 14.9221 8.20317 14.7167C8.18424 14.6794 8.16632 14.6416 8.14864 14.6031C8.12683 14.6135 8.10264 14.6192 8.07669 14.6192H7.55487L6.87849 15.4513C6.83587 15.504 6.75865 15.5119 6.70588 15.469L6.63306 15.41C6.58003 15.3671 6.57251 15.2898 6.61513 15.2371L7.29753 14.3974C7.31996 14.329 7.38402 14.2797 7.4591 14.2797H8.02668C8.02568 14.2772 8.02505 14.2743 8.02417 14.2718C8.01001 14.2264 7.99735 14.1803 7.98569 14.1343V14.1339C7.97967 14.1106 7.97428 14.0873 7.96902 14.0636C7.95385 13.9967 7.94094 13.9292 7.93054 13.8621C7.92765 13.8448 7.92515 13.8273 7.92264 13.81C7.90434 13.8169 7.88441 13.8208 7.8636 13.8208H6.46384L5.79761 14.6407C5.75499 14.6931 5.67778 14.701 5.62501 14.6584L5.55218 14.5991C5.49916 14.5565 5.49126 14.4789 5.53425 14.4262L6.22542 13.5758C6.23269 13.567 6.24084 13.5593 6.24974 13.5531C6.2807 13.5096 6.33109 13.4811 6.38825 13.4811H7.86372C7.87413 13.4811 7.88453 13.4821 7.89431 13.484C7.89268 13.4503 7.89243 13.4162 7.89243 13.3821C7.89243 13.3029 7.89531 13.2238 7.90158 13.1448C7.90409 13.1053 7.90785 13.0662 7.91236 13.0271C7.91675 12.9857 7.92251 12.9445 7.92841 12.9031H5.90917L5.32329 13.7397C5.28443 13.7952 5.20785 13.8088 5.15257 13.7697L5.07523 13.7158C5.0197 13.6769 5.00641 13.6003 5.04527 13.5448L5.65634 12.6716C5.68091 12.6082 5.74246 12.5634 5.81441 12.5634H7.98732C7.99108 12.5634 7.99484 12.5634 7.99835 12.5641C8.02229 12.4726 8.05012 12.3817 8.08196 12.2916C8.09587 12.2531 8.11003 12.2148 8.12545 12.1767C8.13084 12.1635 8.13648 12.1499 8.14187 12.1364H6.7109C6.66427 12.1364 6.62165 12.1175 6.59106 12.0869C6.57778 12.0736 6.56712 12.0582 6.55885 12.0411C6.55509 12.0376 6.55158 12.0338 6.54807 12.0297L5.8569 11.1792C5.81403 11.1266 5.82193 11.0492 5.87482 11.0066L5.94765 10.947C6.0003 10.9043 6.07764 10.9126 6.12026 10.9649L6.79626 11.7968H8.18625C8.22598 11.7968 8.26258 11.8104 8.29129 11.833C8.3957 11.6485 8.52155 11.474 8.66733 11.311C8.84433 11.1046 9.04939 10.9255 9.27841 10.7769C9.30874 10.7573 9.33933 10.7384 9.37016 10.7201C9.4213 10.6895 9.47332 10.6602 9.52697 10.6327C9.75849 10.5131 10.0091 10.4189 10.2714 10.3529C10.3827 10.3248 10.4985 10.3012 10.615 10.2829C10.6283 10.281 10.6414 10.2822 10.6539 10.2857C10.6649 10.2851 10.6765 10.2841 10.6879 10.2832C10.7576 10.2778 10.8302 10.2745 10.9024 10.2725C10.9526 10.2708 11.0031 10.2699 11.0526 10.2699C11.0911 10.2693 11.1293 10.2689 11.1674 10.2689H11.8438V9.68469C11.7984 9.42949 11.7179 9.22442 11.6044 9.07525C11.6009 9.07086 11.5975 9.06648 11.5942 9.06234C11.5826 9.04755 11.5712 9.03301 11.5589 9.01884C11.5443 9.0018 11.5298 8.98513 11.5144 8.96896C11.4784 8.93047 11.4409 8.8945 11.4014 8.86228C11.3371 8.80926 11.2673 8.76326 11.1942 8.72503C11.1397 8.69733 11.0825 8.67263 11.0249 8.65157C10.918 8.61247 10.8028 8.58439 10.6826 8.56834L10.6592 8.56483C10.5378 8.54967 10.4128 8.53838 10.288 8.53262C10.2091 8.52848 10.129 8.5266 10.0498 8.5266H9.84185C9.8248 8.5266 9.80775 8.5266 9.7907 8.52698C9.73894 8.5276 9.68566 8.53011 9.63201 8.53299C9.5736 8.53738 9.51469 8.53964 9.4579 8.53964H9.2957C9.1859 8.53964 9.09038 8.49953 9.01179 8.42068C8.99412 8.40276 8.97832 8.38408 8.96441 8.36428C8.95087 8.34535 8.93921 8.32517 8.92944 8.30398C8.90512 8.25134 8.89283 8.19355 8.89283 8.1305V7.24028C8.89283 7.12797 8.93884 7.03207 9.02971 6.95473C9.11395 6.88341 9.21523 6.8418 9.33093 6.83139C9.447 6.81372 9.55906 6.80369 9.66435 6.80143C9.84987 6.79792 10.0302 6.79579 10.2076 6.80331V6.0254C10.2076 5.99131 10.2282 5.96173 10.2571 5.94869H10.2575L10.2579 5.94831C10.2683 5.94393 10.2797 5.94104 10.292 5.94104H10.6938C10.7402 5.94104 10.7781 5.9789 10.7781 6.02528V6.8606C10.843 6.87138 10.9068 6.88304 10.969 6.8962V6.02515C10.969 5.97877 11.0068 5.94092 11.0532 5.94092H11.4551C11.5017 5.94092 11.5393 5.97877 11.5393 6.02515V7.06391C11.5882 7.08246 11.6365 7.10277 11.6841 7.12358C11.7692 7.16143 11.8526 7.20242 11.9327 7.2463C12.0945 7.33554 12.2457 7.43745 12.3844 7.55164C12.6513 7.7715 12.8749 8.03962 13.0506 8.35011C13.0737 8.3911 13.0964 8.43272 13.1178 8.47571C13.121 8.48198 13.1245 8.48837 13.1273 8.49464C13.1463 8.5335 13.1648 8.57286 13.1825 8.61259C13.2043 8.60181 13.2291 8.59617 13.2551 8.59617H14.6447L15.3207 7.76423C15.3636 7.71184 15.4409 7.70394 15.4933 7.74656L15.5665 7.80585C15.6189 7.84847 15.627 7.92568 15.5844 7.9787L14.8929 8.82894C14.8897 8.83308 14.886 8.83709 14.8821 8.8406C14.8742 8.85765 14.8632 8.87281 14.8499 8.88598C14.8189 8.91656 14.7771 8.93549 14.7301 8.93549H13.3061C13.3396 9.0389 13.3685 9.14557 13.3935 9.25563C13.4001 9.28245 13.4061 9.3089 13.4114 9.33635V9.33673C13.4155 9.35666 13.4193 9.37646 13.423 9.39639C13.4293 9.39577 13.4357 9.39539 13.4424 9.39539H15.6153C15.6868 9.39539 15.7484 9.43951 15.773 9.50294L16.384 10.3765C16.4231 10.432 16.4096 10.5084 16.3541 10.5472L16.3543 10.5476Z" fill="#48C9E3"/>
<path d="M11.7476 4.31263C11.7463 4.30874 11.7445 4.30473 11.7429 4.30084C11.7336 4.27916 11.7234 4.25848 11.7128 4.23817V4.23792C11.6718 4.15895 11.6204 4.0885 11.5595 4.02784C11.4831 3.95112 11.3913 3.88933 11.2865 3.8442C11.1808 3.7987 11.0691 3.77563 10.9542 3.77563C10.8392 3.77563 10.7281 3.7987 10.6244 3.84445C10.5219 3.8897 10.432 3.95175 10.3575 4.02871C10.2989 4.08888 10.2488 4.15882 10.2084 4.23742C10.1975 4.25797 10.1873 4.27903 10.178 4.30059C10.1764 4.30423 10.1749 4.30786 10.1735 4.31187C10.1308 4.41378 10.1092 4.52171 10.1092 4.63314C10.1092 4.71236 10.1201 4.78983 10.1418 4.86428C10.1483 4.8871 10.1558 4.90954 10.1642 4.93172C10.1685 4.943 10.1733 4.95416 10.178 4.96544C10.2233 5.07023 10.2833 5.16174 10.3575 5.23795C10.432 5.31491 10.5219 5.37696 10.6244 5.42221C10.6323 5.42559 10.6401 5.42898 10.648 5.43174H10.6488C10.6508 5.43286 10.6522 5.43374 10.6542 5.43424C10.7491 5.47222 10.85 5.49103 10.9542 5.49103C11.0583 5.49103 11.1626 5.4716 11.2607 5.43286C11.2618 5.43261 11.2629 5.43236 11.2638 5.43174H11.264C11.2717 5.42898 11.279 5.42584 11.2865 5.42246C11.3913 5.37721 11.4831 5.31541 11.5595 5.2387C11.6362 5.16199 11.698 5.07023 11.7429 4.96544C11.7476 4.95454 11.7521 4.94376 11.756 4.9326C11.7647 4.91041 11.7723 4.88798 11.7787 4.86516C11.8007 4.7902 11.8116 4.71236 11.8116 4.63314C11.8116 4.52246 11.7903 4.41466 11.7475 4.31263H11.7476Z" fill="#48C9E3"/>
</g>
</g>
<defs>
<clipPath id="clip0_103_188">
<rect width="22" height="22" fill="white"/>
</clipPath>
<clipPath id="clip1_103_188">
<rect width="22" height="22" fill="white"/>
</clipPath>
</defs>
</svg>
