<svg width="23" height="22" viewBox="0 0 23 22" fill="none" xmlns="http://www.w3.org/2000/svg">
<g clip-path="url(#clip0_103_242)">
<path d="M11.2683 22C17.3434 22 22.2683 17.0751 22.2683 11C22.2683 4.92487 17.3434 0 11.2683 0C5.19318 0 0.268311 4.92487 0.268311 11C0.268311 17.0751 5.19318 22 11.2683 22Z" fill="#FF0420"/>
<path d="M8.06216 13.9236C7.40718 13.9236 6.87055 13.7695 6.45225 13.4613C6.03944 13.1475 5.83303 12.7017 5.83303 12.1238C5.83303 12.0027 5.84681 11.8541 5.87431 11.6779C5.94589 11.2817 6.04771 10.8055 6.1798 10.2496C6.55406 8.73605 7.52004 7.97925 9.07768 7.97925C9.50149 7.97925 9.88125 8.05079 10.217 8.19388C10.5528 8.33147 10.817 8.54064 11.0096 8.82136C11.2022 9.09654 11.2986 9.4268 11.2986 9.81207C11.2986 9.92766 11.2848 10.0735 11.2573 10.2496C11.1747 10.7395 11.0756 11.2156 10.96 11.6779C10.7674 12.432 10.4344 12.9962 9.96107 13.3704C9.48772 13.7392 8.85478 13.9236 8.06216 13.9236ZM8.17775 12.7347C8.48601 12.7347 8.74742 12.6439 8.96209 12.4623C9.18227 12.2806 9.33913 12.0027 9.43267 11.6284C9.55926 11.111 9.65562 10.6597 9.72167 10.2744C9.74367 10.1588 9.75467 10.0405 9.75467 9.91938C9.75467 9.41853 9.49322 9.16808 8.97037 9.16808C8.6621 9.16808 8.39793 9.2589 8.17775 9.44053C7.96312 9.62221 7.80899 9.90016 7.71544 10.2744C7.61635 10.6432 7.51727 11.0945 7.41822 11.6284C7.39618 11.7385 7.38518 11.8541 7.38518 11.9752C7.38518 12.4815 7.6494 12.7347 8.17775 12.7347Z" fill="#27242E"/>
<path d="M11.6776 13.841C11.6171 13.841 11.5703 13.8218 11.5373 13.7832C11.5097 13.7392 11.5015 13.6897 11.5125 13.6346L12.6518 8.26817C12.6628 8.20763 12.6931 8.15808 12.7427 8.11954C12.7922 8.08104 12.8445 8.06177 12.8995 8.06177H15.0956C15.7066 8.06177 16.1964 8.18836 16.5652 8.44153C16.9395 8.69475 17.1266 9.06074 17.1266 9.5396C17.1266 9.67718 17.1101 9.82032 17.0771 9.9689C16.9395 10.6019 16.6616 11.0697 16.2433 11.3725C15.8304 11.6752 15.2635 11.8265 14.5425 11.8265H13.4279L13.0482 13.6346C13.0371 13.6952 13.0068 13.7447 12.9573 13.7832C12.9078 13.8218 12.8555 13.841 12.8005 13.841H11.6776ZM14.6003 10.6872C14.8314 10.6872 15.0323 10.6239 15.203 10.4973C15.3791 10.3707 15.4947 10.1891 15.5497 9.9524C15.5662 9.85882 15.5745 9.77627 15.5745 9.70473C15.5745 9.5451 15.5277 9.42401 15.4341 9.34146C15.3406 9.25338 15.181 9.20937 14.9553 9.20937H13.9645L13.6508 10.6872H14.6003Z" fill="#27242E"/>
</g>
<defs>
<clipPath id="clip0_103_242">
<rect width="22" height="22" fill="white" transform="translate(0.268311)"/>
</clipPath>
</defs>
</svg>
