<svg width="16" height="16" viewBox="0 0 16 16" fill="none" xmlns="http://www.w3.org/2000/svg">
<path d="M6.99997 1V12.17L2.11997 7.29C1.72997 6.9 1.08997 6.9 0.699971 7.29C0.309971 7.68 0.309971 8.31 0.699971 8.7L7.28997 15.29C7.67997 15.68 8.30997 15.68 8.69997 15.29L15.29 8.7C15.68 8.31 15.68 7.68 15.29 7.29C15.1975 7.19728 15.0876 7.12373 14.9666 7.07354C14.8456 7.02335 14.7159 6.99751 14.585 6.99751C14.454 6.99751 14.3243 7.02335 14.2033 7.07354C14.0824 7.12373 13.9725 7.19728 13.88 7.29L8.99997 12.17V1C8.99997 0.45 8.54997 0 7.99997 0C7.44997 0 6.99997 0.45 6.99997 1Z" fill="#CD01A9"/>
</svg>
