<svg width="19" height="19" viewBox="0 0 19 19" fill="none" xmlns="http://www.w3.org/2000/svg">
<path d="M14.3095 4.76365C11.6736 2.12762 7.39969 2.12762 4.76365 4.76365C3.90716 5.62015 3.32895 6.64954 3.02904 7.73944C3.02538 7.75609 3.02134 7.77263 3.0169 7.78917C2.94845 8.04466 2.89561 8.3006 2.8578 8.55608C2.5606 10.5639 3.19168 12.5404 4.46708 13.9937C4.56192 14.1013 4.66078 14.2067 4.76365 14.3096C5.09351 14.6395 5.44904 14.9281 5.82379 15.1754C6.41231 15.5628 7.072 15.8639 7.78984 16.0562C8.08099 16.1342 8.3727 16.1919 8.66362 16.2303C10.573 16.4818 12.4461 15.8974 13.8591 14.7216C14.0139 14.5923 14.1642 14.4549 14.3095 14.3096C14.3205 14.2986 14.3316 14.2881 14.3428 14.2777C15.1389 13.4723 15.7428 12.4553 16.0569 11.2832C16.2177 10.6831 16.8346 10.3269 17.4347 10.4877C18.0349 10.6486 18.391 11.2654 18.2303 11.8656C17.7284 13.7385 16.6714 15.3144 15.2836 16.4636C14.2119 17.3549 12.9818 17.9587 11.6955 18.2752C9.34335 18.854 6.80321 18.4717 4.69946 17.1285C3.95218 16.6526 3.28827 16.0736 2.72215 15.4162C1.7639 14.308 1.12076 13.0214 0.792729 11.6739C0.519163 10.5593 0.456231 9.37969 0.636951 8.1926C0.912902 6.3554 1.75815 4.58718 3.17266 3.17267C6.68738 -0.34206 12.3859 -0.34206 15.9006 3.17267L16.5124 3.7845L16.513 2.18691C16.5131 1.68986 16.9162 1.28705 17.4133 1.28722C17.9103 1.2874 18.3131 1.69049 18.313 2.18754L18.3116 6.16182L18.3113 7.06152L17.4116 7.06151H17.3077C17.1665 7.08869 17.0211 7.08869 16.8799 7.0615L13.4381 7.06146C12.9411 7.06146 12.5381 6.65851 12.5381 6.16145C12.5381 5.66441 12.9411 5.26146 13.4381 5.26146L14.8074 5.26148L14.3095 4.76365Z" fill="#9991A0"/>
</svg>
