<svg width="21" height="20" viewBox="0 0 21 20" fill="none" xmlns="http://www.w3.org/2000/svg">
<path d="M17.93 10.98C17.97 10.66 18 10.34 18 10C18 9.66 17.97 9.34 17.93 9.02L20.04 7.37C20.23 7.22 20.28 6.95 20.16 6.73L18.16 3.27C18.04 3.05 17.77 2.97 17.55 3.05L15.06 4.05C14.54 3.65 13.98 3.32 13.37 3.07L12.99 0.42C12.96 0.18 12.75 0 12.5 0H8.49996C8.24996 0 8.03996 0.18 8.00996 0.42L7.62996 3.07C7.01996 3.32 6.45996 3.66 5.93996 4.05L3.44996 3.05C3.21996 2.96 2.95996 3.05 2.83996 3.27L0.839962 6.73C0.709962 6.95 0.769961 7.22 0.959961 7.37L3.06996 9.02C3.02996 9.34 2.99996 9.67 2.99996 10C2.99996 10.33 3.02996 10.66 3.06996 10.98L0.959961 12.63C0.769961 12.78 0.719962 13.05 0.839962 13.27L2.83996 16.73C2.95996 16.95 3.22996 17.03 3.44996 16.95L5.93996 15.95C6.45996 16.35 7.01996 16.68 7.62996 16.93L8.00996 19.58C8.03996 19.82 8.24996 20 8.49996 20H12.5C12.75 20 12.96 19.82 12.99 19.58L13.37 16.93C13.98 16.68 14.54 16.34 15.06 15.95L17.55 16.95C17.78 17.04 18.04 16.95 18.16 16.73L20.16 13.27C20.28 13.05 20.23 12.78 20.04 12.63L17.93 10.98ZM10.5 13.5C8.57 13.5 6.99996 11.93 6.99996 10C6.99996 8.07 8.57 6.5 10.5 6.5C12.43 6.5 14 8.07 14 10C14 11.93 12.43 13.5 10.5 13.5Z" fill="#64656A"/>
</svg>
