<svg width="14" height="15" viewBox="0 0 14 15" fill="none" xmlns="http://www.w3.org/2000/svg">
<g clip-path="url(#clip0_103_464)">
<path d="M7 1.71057C3.78 1.71057 1.16667 4.3239 1.16667 7.5439C1.16667 10.7639 3.78 13.3772 7 13.3772C10.22 13.3772 12.8333 10.7639 12.8333 7.5439C12.8333 4.3239 10.22 1.71057 7 1.71057ZM7.58334 11.6272H6.41667V10.4606H7.58334V11.6272ZM8.79084 7.1064L8.26584 7.64307C7.84584 8.0689 7.58334 8.4189 7.58334 9.2939H6.41667V9.00224C6.41667 8.36057 6.67917 7.77724 7.09917 7.3514L7.8225 6.6164C8.03834 6.4064 8.16667 6.11474 8.16667 5.7939C8.16667 5.15224 7.64167 4.62724 7 4.62724C6.35834 4.62724 5.83334 5.15224 5.83334 5.7939H4.66667C4.66667 4.50474 5.71084 3.46057 7 3.46057C8.28917 3.46057 9.33334 4.50474 9.33334 5.7939C9.33334 6.30724 9.12334 6.7739 8.79084 7.1064Z" fill="#64626E"/>
</g>
<defs>
<clipPath id="clip0_103_464">
<rect width="14" height="13.8507" fill="white" transform="translate(0 0.543945)"/>
</clipPath>
</defs>
</svg>
