<svg width="23" height="22" viewBox="0 0 23 22" fill="none" xmlns="http://www.w3.org/2000/svg">
<path d="M10.3975 12.6691C9.84518 12.6691 9.39747 12.2214 9.39747 11.6691V5.75061C9.39747 5.19833 9.84518 4.75061 10.3975 4.75061H11.021C11.5733 4.75061 12.021 5.19833 12.021 5.75061V11.6691C12.021 12.2214 11.5733 12.6691 11.021 12.6691H10.3975ZM10.7092 16.78C10.1627 16.78 9.69808 16.6339 9.31548 16.3419C8.94655 16.0386 8.76208 15.6511 8.76208 15.1794C8.76208 14.7077 8.94655 14.3258 9.31548 14.0338C9.69808 13.7305 10.1627 13.5789 10.7092 13.5789C11.2695 13.5789 11.734 13.7305 12.103 14.0338C12.4719 14.3258 12.6564 14.7077 12.6564 15.1794C12.6564 15.6511 12.4719 16.0386 12.103 16.3419C11.734 16.6339 11.2695 16.78 10.7092 16.78Z" fill="#FFB800"/>
<path d="M21.8921 10.7652C21.8921 16.3425 17.1276 20.9066 11.1961 20.9066C5.26455 20.9066 0.5 16.3425 0.5 10.7652C0.5 5.18797 5.26455 0.623901 11.1961 0.623901C17.1276 0.623901 21.8921 5.18797 21.8921 10.7652Z" stroke="#FFAA06"/>
</svg>
