<svg width="32" height="32" viewBox="0 0 32 32" fill="none" xmlns="http://www.w3.org/2000/svg">
<rect width="32" height="32" rx="16" fill="#35323D"/>
<path d="M13.762 17.86V17.428C13.762 16.816 13.882 16.312 14.122 15.916C14.374 15.52 14.776 15.19 15.328 14.926L15.634 14.782C16.174 14.53 16.588 14.26 16.876 13.972C17.164 13.684 17.308 13.3 17.308 12.82C17.308 12.472 17.218 12.178 17.038 11.938C16.87 11.686 16.63 11.494 16.318 11.362C16.006 11.23 15.64 11.164 15.22 11.164C14.788 11.164 14.398 11.236 14.05 11.38C13.714 11.524 13.444 11.74 13.24 12.028C13.048 12.316 12.952 12.676 12.952 13.108V13.504H10.612V13.144C10.612 12.316 10.816 11.602 11.224 11.002C11.632 10.402 12.184 9.946 12.88 9.634C13.576 9.31 14.356 9.148 15.22 9.148C16.072 9.148 16.828 9.304 17.488 9.616C18.16 9.928 18.688 10.36 19.072 10.912C19.456 11.464 19.648 12.1 19.648 12.82C19.648 13.54 19.516 14.134 19.252 14.602C18.988 15.058 18.652 15.43 18.244 15.718C17.848 15.994 17.44 16.234 17.02 16.438L16.714 16.582C16.498 16.678 16.348 16.798 16.264 16.942C16.18 17.074 16.138 17.272 16.138 17.536V17.86H13.762ZM15.022 22.252C14.542 22.252 14.134 22.096 13.798 21.784C13.474 21.46 13.312 21.046 13.312 20.542C13.312 20.038 13.474 19.63 13.798 19.318C14.134 18.994 14.542 18.832 15.022 18.832C15.514 18.832 15.922 18.994 16.246 19.318C16.57 19.63 16.732 20.038 16.732 20.542C16.732 21.046 16.57 21.46 16.246 21.784C15.922 22.096 15.514 22.252 15.022 22.252Z" fill="white"/>
</svg>
